ply
format ascii 1.0
comment VCGLIB generated
comment TextureFile dummy.png
element vertex 56
property float x
property float y
property float z
property float nx
property float ny
property float nz
element face 108
property list uchar int vertex_indices
property list uchar float texcoord
end_header
-0.6858908 -0.9999999 0.685891 0.1443257 -0.9789485 -0.1443256 
-0.6858908 -1 -0.6858906 0.1443258 -0.9789485 0.1443259 
-0.5824733 -0.8492218 -0.5824732 0.372118 -0.8503271 0.3721183 
-0.5824733 -0.8492216 0.5824735 0.372118 -0.8503273 -0.3721179 
1 0.6858906 -0.6858909 0.9789485 -0.1443257 0.1443257 
1 0.685891 0.6858906 0.9789485 -0.1443257 -0.1443256 
0.8492218 0.5824733 0.5824732 0.8503274 -0.3721177 -0.372118 
0.8492218 0.5824732 -0.5824735 0.8503273 -0.3721178 0.3721181 
-1 0.6858906 -0.6858909 -0.9789485 -0.1443258 0.1443258 
-1 -0.6858909 -0.6858906 -0.9789485 0.1443259 0.1443258 
-0.8492216 -0.5824735 -0.5824732 -0.850327 0.3721183 0.3721182 
-0.8492216 0.5824732 -0.5824735 -0.8503271 -0.372118 0.3721184 
0.6858908 0.9999998 -0.685891 -0.1443258 0.9789485 0.1443257 
-0.6858908 0.9999998 -0.685891 0.1443257 0.9789485 0.1443256 
-0.5824733 0.8492216 -0.5824735 0.3721179 0.8503273 0.3721179 
0.5824735 0.8492216 -0.5824735 -0.3721182 0.8503272 0.3721179 
-0.6858908 -0.6858906 1 0.1443258 0.1443259 0.9789485 
0.6858908 -0.6858906 1 -0.1443258 0.1443261 0.9789485 
0.5824735 -0.5824732 0.8492218 -0.3721183 0.3721183 0.8503271 
-0.5824733 -0.5824732 0.8492218 0.372118 0.3721183 0.8503271 
-0.6858908 0.6858906 -1 0.1443257 -0.1443259 -0.9789485 
0.6858908 0.6858906 -1 -0.1443257 -0.1443259 -0.9789485 
0.5824735 0.5824732 -0.8492218 -0.3721184 -0.3721181 -0.8503271 
-0.5824733 0.5824732 -0.8492218 0.3721181 -0.3721182 -0.8503271 
-1 -0.9999998 1 -0.5773504 -0.5773501 0.5773503 
-1 1 0.9999998 -0.5773504 0.5773503 0.5773501 
-1 0.685891 0.6858906 -0.9789485 -0.1443258 -0.1443257 
-1 -0.6858906 0.6858909 -0.9789485 0.1443258 -0.1443259 
-1 0.9999998 -1 -0.5773504 0.5773502 -0.5773503 
-1 -1 -0.9999998 -0.5773503 -0.5773503 -0.5773501 
-0.6858908 -0.685891 -0.9999999 0.1443257 0.1443255 -0.9789485 
1 0.9999998 -1 0.5773503 0.5773503 -0.5773504 
1 -1 -0.9999998 0.5773503 -0.5773504 -0.5773502 
0.6858908 -0.685891 -0.9999999 -0.1443258 0.1443257 -0.9789485 
1 -0.6858909 -0.6858906 0.9789485 0.1443258 0.1443257 
1 1 0.9999998 0.5773503 0.5773503 0.5773502 
1 -0.9999998 1 0.5773503 -0.5773501 0.5773503 
1 -0.6858906 0.6858909 0.9789485 0.1443256 -0.1443258 
0.6858908 0.685891 0.9999998 -0.1443259 -0.1443257 0.9789485 
-0.6858908 0.685891 0.9999998 0.1443258 -0.1443256 0.9789485 
0.6858908 -1 -0.6858906 -0.1443258 -0.9789485 0.144326 
0.6858908 -0.9999999 0.685891 -0.1443258 -0.9789485 -0.1443257 
-0.6858908 1 0.6858906 0.1443257 0.9789485 -0.1443258 
0.6858908 1 0.6858906 -0.1443257 0.9789485 -0.144326 
-0.8492216 -0.5824732 0.5824734 -0.8503271 0.3721182 -0.3721183 
-0.8492216 0.5824733 0.5824732 -0.8503273 -0.3721179 -0.3721181 
-0.5824733 -0.5824735 -0.8492216 0.372118 0.3721181 -0.8503272 
0.5824735 -0.5824735 -0.8492216 -0.3721183 0.3721181 -0.8503271 
0.8492218 -0.5824735 -0.5824732 0.8503272 0.372118 0.3721181 
0.8492218 -0.5824732 0.5824734 0.8503272 0.372118 -0.3721181 
0.5824735 0.5824735 0.8492215 -0.3721183 -0.3721179 0.8503272 
-0.5824733 0.5824735 0.8492215 0.372118 -0.3721179 0.8503273 
0.5824735 -0.8492218 -0.5824732 -0.3721183 -0.8503271 0.3721182 
0.5824735 -0.8492216 0.5824735 -0.3721183 -0.8503271 -0.3721179 
-0.5824733 0.8492218 0.5824732 0.372118 0.8503271 -0.3721183 
0.5824735 0.8492218 0.5824732 -0.3721184 0.850327 -0.3721181 
3 0 1 2 6 0.071824 0.187980 0.071824 0.187980 0.071824 0.187980 
3 0 2 3 6 0.071824 0.187980 0.071824 0.187980 0.071824 0.187980 
3 4 5 6 6 0.071824 0.187980 0.071824 0.187980 0.071824 0.187980 
3 4 6 7 6 0.071824 0.187980 0.071824 0.187980 0.071824 0.187980 
3 8 9 10 6 0.071824 0.187980 0.071824 0.187980 0.071824 0.187980 
3 8 10 11 6 0.071824 0.187980 0.071824 0.187980 0.071824 0.187980 
3 12 13 14 6 0.071824 0.187980 0.071824 0.187980 0.071824 0.187980 
3 12 14 15 6 0.071824 0.187980 0.071824 0.187980 0.071824 0.187980 
3 16 17 18 6 0.071824 0.187980 0.071824 0.187980 0.071824 0.187980 
3 16 18 19 6 0.071824 0.187980 0.071824 0.187980 0.071824 0.187980 
3 20 21 22 6 0.071824 0.187980 0.071824 0.187980 0.071824 0.187980 
3 20 22 23 6 0.071824 0.187980 0.071824 0.187980 0.071824 0.187980 
3 24 25 26 6 0.071824 0.187980 0.071824 0.187980 0.071824 0.187980 
3 24 26 27 6 0.071824 0.187980 0.071824 0.187980 0.071824 0.187980 
3 25 28 8 6 0.071824 0.187980 0.071824 0.187980 0.071824 0.187980 
3 25 8 26 6 0.071824 0.187980 0.071824 0.187980 0.071824 0.187980 
3 28 29 9 6 0.071824 0.187980 0.071824 0.187980 0.071824 0.187980 
3 28 9 8 6 0.071824 0.187980 0.071824 0.187980 0.071824 0.187980 
3 29 24 27 6 0.071824 0.187980 0.071824 0.187980 0.071824 0.187980 
3 29 27 9 6 0.071824 0.187980 0.071824 0.187980 0.071824 0.187980 
3 29 28 20 6 0.071824 0.187980 0.071824 0.187980 0.071824 0.187980 
3 29 20 30 6 0.071824 0.187980 0.071824 0.187980 0.071824 0.187980 
3 28 31 21 6 0.071824 0.187980 0.071824 0.187980 0.071824 0.187980 
3 28 21 20 6 0.071824 0.187980 0.071824 0.187980 0.071824 0.187980 
3 31 32 33 6 0.071824 0.187980 0.071824 0.187980 0.071824 0.187980 
3 31 33 21 6 0.071824 0.187980 0.071824 0.187980 0.071824 0.187980 
3 32 29 30 6 0.071824 0.187980 0.071824 0.187980 0.071824 0.187980 
3 32 30 33 6 0.071824 0.187980 0.071824 0.187980 0.071824 0.187980 
3 32 31 4 6 0.071824 0.187980 0.071824 0.187980 0.071824 0.187980 
3 32 4 34 6 0.071824 0.187980 0.071824 0.187980 0.071824 0.187980 
3 31 35 5 6 0.071824 0.187980 0.071824 0.187980 0.071824 0.187980 
3 31 5 4 6 0.071824 0.187980 0.071824 0.187980 0.071824 0.187980 
3 35 36 37 6 0.071824 0.187980 0.071824 0.187980 0.071824 0.187980 
3 35 37 5 6 0.071824 0.187980 0.071824 0.187980 0.071824 0.187980 
3 36 32 34 6 0.071824 0.187980 0.071824 0.187980 0.071824 0.187980 
3 36 34 37 6 0.071824 0.187980 0.071824 0.187980 0.071824 0.187980 
3 36 35 38 6 0.071824 0.187980 0.071824 0.187980 0.071824 0.187980 
3 36 38 17 6 0.071824 0.187980 0.071824 0.187980 0.071824 0.187980 
3 35 25 39 6 0.071824 0.187980 0.071824 0.187980 0.071824 0.187980 
3 35 39 38 6 0.071824 0.187980 0.071824 0.187980 0.071824 0.187980 
3 25 24 16 6 0.071824 0.187980 0.071824 0.187980 0.071824 0.187980 
3 25 16 39 6 0.071824 0.187980 0.071824 0.187980 0.071824 0.187980 
3 24 36 17 6 0.071824 0.187980 0.071824 0.187980 0.071824 0.187980 
3 24 17 16 6 0.071824 0.187980 0.071824 0.187980 0.071824 0.187980 
3 29 32 40 6 0.071824 0.187980 0.071824 0.187980 0.071824 0.187980 
3 29 40 1 6 0.071824 0.187980 0.071824 0.187980 0.071824 0.187980 
3 32 36 41 6 0.071824 0.187980 0.071824 0.187980 0.071824 0.187980 
3 32 41 40 6 0.071824 0.187980 0.071824 0.187980 0.071824 0.187980 
3 36 24 0 6 0.071824 0.187980 0.071824 0.187980 0.071824 0.187980 
3 36 0 41 6 0.071824 0.187980 0.071824 0.187980 0.071824 0.187980 
3 24 29 1 6 0.071824 0.187980 0.071824 0.187980 0.071824 0.187980 
3 24 1 0 6 0.071824 0.187980 0.071824 0.187980 0.071824 0.187980 
3 31 28 13 6 0.071824 0.187980 0.071824 0.187980 0.071824 0.187980 
3 31 13 12 6 0.071824 0.187980 0.071824 0.187980 0.071824 0.187980 
3 28 25 42 6 0.071824 0.187980 0.071824 0.187980 0.071824 0.187980 
3 28 42 13 6 0.071824 0.187980 0.071824 0.187980 0.071824 0.187980 
3 25 35 43 6 0.071824 0.187980 0.071824 0.187980 0.071824 0.187980 
3 25 43 42 6 0.071824 0.187980 0.071824 0.187980 0.071824 0.187980 
3 35 31 12 6 0.071824 0.187980 0.071824 0.187980 0.071824 0.187980 
3 35 12 43 6 0.071824 0.187980 0.071824 0.187980 0.071824 0.187980 
3 44 45 11 6 0.071824 0.187980 0.071824 0.187980 0.071824 0.187980 
3 44 11 10 6 0.071824 0.187980 0.071824 0.187980 0.071824 0.187980 
3 46 23 22 6 0.071824 0.187980 0.071824 0.187980 0.071824 0.187980 
3 46 22 47 6 0.071824 0.187980 0.071824 0.187980 0.071824 0.187980 
3 48 7 6 6 0.071824 0.187980 0.071824 0.187980 0.071824 0.187980 
3 48 6 49 6 0.071824 0.187980 0.071824 0.187980 0.071824 0.187980 
3 18 50 51 6 0.071824 0.187980 0.071824 0.187980 0.071824 0.187980 
3 18 51 19 6 0.071824 0.187980 0.071824 0.187980 0.071824 0.187980 
3 2 52 53 6 0.071824 0.187980 0.071824 0.187980 0.071824 0.187980 
3 2 53 3 6 0.071824 0.187980 0.071824 0.187980 0.071824 0.187980 
3 15 14 54 6 0.071824 0.187980 0.071824 0.187980 0.071824 0.187980 
3 15 54 55 6 0.071824 0.187980 0.071824 0.187980 0.071824 0.187980 
3 21 33 47 6 0.071824 0.187980 0.071824 0.187980 0.071824 0.187980 
3 21 47 22 6 0.071824 0.187980 0.071824 0.187980 0.071824 0.187980 
3 38 39 51 6 0.071824 0.187980 0.071824 0.187980 0.071824 0.187980 
3 38 51 50 6 0.071824 0.187980 0.071824 0.187980 0.071824 0.187980 
3 43 12 15 6 0.071824 0.187980 0.071824 0.187980 0.071824 0.187980 
3 43 15 55 6 0.071824 0.187980 0.071824 0.187980 0.071824 0.187980 
3 5 37 49 6 0.071824 0.187980 0.071824 0.187980 0.071824 0.187980 
3 5 49 6 6 0.071824 0.187980 0.071824 0.187980 0.071824 0.187980 
3 40 41 53 6 0.071824 0.187980 0.071824 0.187980 0.071824 0.187980 
3 40 53 52 6 0.071824 0.187980 0.071824 0.187980 0.071824 0.187980 
3 39 16 19 6 0.071824 0.187980 0.071824 0.187980 0.071824 0.187980 
3 39 19 51 6 0.071824 0.187980 0.071824 0.187980 0.071824 0.187980 
3 13 42 54 6 0.071824 0.187980 0.071824 0.187980 0.071824 0.187980 
3 13 54 14 6 0.071824 0.187980 0.071824 0.187980 0.071824 0.187980 
3 41 0 3 6 0.071824 0.187980 0.071824 0.187980 0.071824 0.187980 
3 41 3 53 6 0.071824 0.187980 0.071824 0.187980 0.071824 0.187980 
3 42 43 55 6 0.071824 0.187980 0.071824 0.187980 0.071824 0.187980 
3 42 55 54 6 0.071824 0.187980 0.071824 0.187980 0.071824 0.187980 
3 27 26 45 6 0.071824 0.187980 0.071824 0.187980 0.071824 0.187980 
3 27 45 44 6 0.071824 0.187980 0.071824 0.187980 0.071824 0.187980 
3 30 20 23 6 0.071824 0.187980 0.071824 0.187980 0.071824 0.187980 
3 30 23 46 6 0.071824 0.187980 0.071824 0.187980 0.071824 0.187980 
3 9 27 44 6 0.071824 0.187980 0.071824 0.187980 0.071824 0.187980 
3 9 44 10 6 0.071824 0.187980 0.071824 0.187980 0.071824 0.187980 
3 34 4 7 6 0.071824 0.187980 0.071824 0.187980 0.071824 0.187980 
3 34 7 48 6 0.071824 0.187980 0.071824 0.187980 0.071824 0.187980 
3 33 30 46 6 0.071824 0.187980 0.071824 0.187980 0.071824 0.187980 
3 33 46 47 6 0.071824 0.187980 0.071824 0.187980 0.071824 0.187980 
3 17 38 50 6 0.071824 0.187980 0.071824 0.187980 0.071824 0.187980 
3 17 50 18 6 0.071824 0.187980 0.071824 0.187980 0.071824 0.187980 
3 26 8 11 6 0.071824 0.187980 0.071824 0.187980 0.071824 0.187980 
3 26 11 45 6 0.071824 0.187980 0.071824 0.187980 0.071824 0.187980 
3 37 34 48 6 0.071824 0.187980 0.071824 0.187980 0.071824 0.187980 
3 37 48 49 6 0.071824 0.187980 0.071824 0.187980 0.071824 0.187980 
3 1 40 52 6 0.071824 0.187980 0.071824 0.187980 0.071824 0.187980 
3 1 52 2 6 0.071824 0.187980 0.071824 0.187980 0.071824 0.187980 
