ply
format ascii 1.0
comment VCGLIB generated
comment TextureFile dummy_texture
element vertex 16
property float x
property float y
property float z
property float nx
property float ny
property float nz
property float texture_u
property float texture_v
element face 32
property list uchar int vertex_indices
property list uchar float texcoord
end_header
-9.999999 30 -10 -0.1622215 0.9733285 -0.1622214 -9.999999 30
-9.999999 -30 -10 -0.1622214 -0.9733286 -0.1622214 -9.999999 -30
-9.999999 -29.99996 10 -0.1622216 -0.9733285 0.1622215 -9.999999 -29.99996
-9.999999 30 10 -0.1622214 0.9733285 0.1622215 -9.999999 30
9.999999 -29.99996 10 0.1622215 -0.9733285 0.1622215 9.999999 -29.99996
9.999999 30 10 0.1622214 0.9733285 0.1622215 9.999999 30
9.999999 -30 -10 0.1622214 -0.9733285 -0.1622214 9.999999 -30
9.999999 30 -10 0.1622214 0.9733285 -0.1622214 9.999999 30
5 -30 -5.000001 -0.05538489 -0.9969279 0.05538485 5 -30
5 -30 5 -0.05538481 -0.9969279 -0.05538481 5 -30
5 30 5.000001 -0.05538489 0.9969279 -0.05538485 5 30
5 30 -5 -0.05538487 0.9969279 0.05538493 5 30
-5 -30 -5.000001 0.05538485 -0.9969279 0.05538486 -5 -30
-5 30 -5 0.05538487 0.9969279 0.05538493 -5 30
-5 30 5.000001 0.05538489 0.9969279 -0.05538484 -5 30
-5 -30 5 0.05538476 -0.9969279 -0.05538481 -5 -30
3 0 1 2 6 -9.999999 30 -9.999999 -30 -9.999999 -29.99996 
3 0 2 3 6 -9.999999 30 -9.999999 -29.99996 -9.999999 30 
3 3 2 4 6 -9.999999 30 -9.999999 -29.99996 9.999999 -29.99996 
3 3 4 5 6 -9.999999 30 9.999999 -29.99996 9.999999 30 
3 5 4 6 6 9.999999 30 9.999999 -29.99996 9.999999 -30 
3 5 6 7 6 9.999999 30 9.999999 -30 9.999999 30 
3 7 6 1 6 9.999999 30 9.999999 -30 -9.999999 -30 
3 7 1 0 6 9.999999 30 -9.999999 -30 -9.999999 30 
3 8 9 10 6 5 -30 5 -30 5 30 
3 8 10 11 6 5 -30 5 30 5 30 
3 12 8 11 6 -5 -30 5 -30 5 30 
3 12 11 13 6 -5 -30 5 30 -5 30 
3 14 13 0 6 -5 30 -5 30 -9.999999 30 
3 14 0 3 6 -5 30 -9.999999 30 -9.999999 30 
3 12 15 2 6 -5 -30 -5 -30 -9.999999 -29.99996 
3 12 2 1 6 -5 -30 -9.999999 -29.99996 -9.999999 -30 
3 10 14 3 6 5 30 -5 30 -9.999999 30 
3 10 3 5 6 5 30 -9.999999 30 9.999999 30 
3 15 9 4 6 -5 -30 5 -30 9.999999 -29.99996 
3 15 4 2 6 -5 -30 9.999999 -29.99996 -9.999999 -29.99996 
3 11 10 5 6 5 30 5 30 9.999999 30 
3 11 5 7 6 5 30 9.999999 30 9.999999 30 
3 9 8 6 6 5 -30 5 -30 9.999999 -30 
3 9 6 4 6 5 -30 9.999999 -30 9.999999 -29.99996 
3 13 11 7 6 -5 30 5 30 9.999999 30 
3 13 7 0 6 -5 30 9.999999 30 -9.999999 30 
3 8 12 1 6 5 -30 -5 -30 -9.999999 -30 
3 8 1 6 6 5 -30 -9.999999 -30 9.999999 -30 
3 9 15 14 6 5 -30 -5 -30 -5 30 
3 9 14 10 6 5 -30 -5 30 5 30 
3 15 12 13 6 -5 -30 -5 -30 -5 30 
3 15 13 14 6 -5 -30 -5 30 -5 30 
