ply
format ascii 1.0
comment VCGLIB generated
element vertex 8
property float x
property float y
property float z
property float nx
property float ny
property float nz
property float texture_u
property float texture_v
element face 12
property list uchar int vertex_indices
end_header
-1 -0.25 -1 -0.6963106 -0.1740777 -0.6963106 -1 -0.25
1 -0.25 -1 0.4364358 -0.2182179 -0.8728716 1 -0.25
-1 0.25 -1 -0.7043607 0.08804509 -0.7043607 -1 0.25
1 0.25 -1 0.8728716 0.2182179 -0.4364358 1 0.25
-1 -0.25 1 -0.8728716 -0.2182179 0.4364358 -1 -0.25
1 -0.25 1 0.7043607 -0.08804509 0.7043607 1 -0.25
-1 0.25 1 -0.4364358 0.2182179 0.8728716 -1 0.25
1 0.25 1 0.6963106 0.1740777 0.6963106 1 0.25
3 2 1 0 
3 1 2 3 
3 4 2 0 
3 2 4 6 
3 1 4 0 
3 4 1 5 
3 6 5 7 
3 5 6 4 
3 3 6 7 
3 6 3 2 
3 5 3 7 
3 3 5 1 
