ply
format ascii 1.0
comment VCGLIB generated
element vertex 60
property float x
property float y
property float z
property float nx
property float ny
property float nz
property float texture_u
property float texture_v
element face 20
property list uchar int vertex_indices
end_header
0 0.8506508 0.5257311 0 0.8506508 0.5257311 0.0009765625 0.9990234
0 0.8506508 -0.5257311 0 0.8506508 -0.5257311 0.2476424 0.9990234
0 -0.8506508 0.5257311 0 -0.8506508 0.5257311 0.4976424 0.9990234
0 -0.8506508 -0.5257311 0 -0.8506508 -0.5257311 0.2509766 0.9990234
0.8506508 0.5257311 0 0.8506508 0.5257311 0 0.0009765625 0.7523576
0.8506508 -0.5257311 0 0.8506508 -0.5257311 0 0.2509766 0.7523576
-0.8506508 0.5257311 0 -0.8506508 0.5257311 0 0.2490234 0.9976424
-0.8506508 -0.5257311 0 -0.8506508 -0.5257311 0 0.4990234 0.9976424
0.5257311 0 0.8506508 0.5257311 0 0.8506508 0.7490234 0.9976424
-0.5257311 0 0.8506508 -0.5257311 0 0.8506508 0.7509766 0.7523576
0.5257311 0 -0.8506508 0.5257311 0 -0.8506508 0.5009766 0.7523576
-0.5257311 0 -0.8506508 -0.5257311 0 -0.8506508 0.9990234 0.9976424
0 0.8506508 0.5257311 0 0.8506508 0.5257311 0.002357631 0.7509766
0 0.8506508 -0.5257311 0 0.8506508 -0.5257311 0.2490234 0.7509766
0 -0.8506508 -0.5257311 0 -0.8506508 -0.5257311 0.2523576 0.7509766
0 -0.8506508 0.5257311 0 -0.8506508 0.5257311 0.4990234 0.7509766
0.8506508 0.5257311 0 0.8506508 0.5257311 0 0.7476424 0.9990234
0.8506508 -0.5257311 0 0.8506508 -0.5257311 0 0.5009766 0.9990234
0.8506508 -0.5257311 0 0.8506508 -0.5257311 0 0.5023576 0.7509766
0.8506508 0.5257311 0 0.8506508 0.5257311 0 0.7490234 0.7509766
-0.8506508 0.5257311 0 -0.8506508 0.5257311 0 0.9976424 0.9990234
-0.8506508 -0.5257311 0 -0.8506508 -0.5257311 0 0.7509766 0.9990234
-0.8506508 -0.5257311 0 -0.8506508 -0.5257311 0 0.7523576 0.7509766
-0.8506508 0.5257311 0 -0.8506508 0.5257311 0 0.9990234 0.7509766
0.5257311 0 0.8506508 0.5257311 0 0.8506508 0.2476424 0.7490234
-0.5257311 0 0.8506508 -0.5257311 0 0.8506508 0.0009765625 0.7490234
0 -0.8506508 0.5257311 0 -0.8506508 0.5257311 0.0009765625 0.5023576
-0.5257311 0 0.8506508 -0.5257311 0 0.8506508 0.002357631 0.5009766
0.5257311 0 0.8506508 0.5257311 0 0.8506508 0.2490234 0.5009766
0 0.8506508 0.5257311 0 0.8506508 0.5257311 0.2490234 0.7476424
0.5257311 0 -0.8506508 0.5257311 0 -0.8506508 0.4976424 0.7490234
-0.5257311 0 -0.8506508 -0.5257311 0 -0.8506508 0.2509766 0.7490234
0 0.8506508 -0.5257311 0 0.8506508 -0.5257311 0.2509766 0.5023576
-0.5257311 0 -0.8506508 -0.5257311 0 -0.8506508 0.2523576 0.5009766
0.5257311 0 -0.8506508 0.5257311 0 -0.8506508 0.4990234 0.5009766
0 -0.8506508 -0.5257311 0 -0.8506508 -0.5257311 0.4990234 0.7476424
0 0.8506508 0.5257311 0 0.8506508 0.5257311 0.7476424 0.7490234
0.5257311 0 0.8506508 0.5257311 0 0.8506508 0.5009766 0.7490234
0.8506508 0.5257311 0 0.8506508 0.5257311 0 0.5009766 0.5023576
0 0.8506508 0.5257311 0 0.8506508 0.5257311 0.5023576 0.5009766
-0.8506508 0.5257311 0 -0.8506508 0.5257311 0 0.7490234 0.5009766
-0.5257311 0 0.8506508 -0.5257311 0 0.8506508 0.7490234 0.7476424
0 0.8506508 -0.5257311 0 0.8506508 -0.5257311 0.9976424 0.7490234
0.8506508 0.5257311 0 0.8506508 0.5257311 0 0.7509766 0.7490234
0.5257311 0 -0.8506508 0.5257311 0 -0.8506508 0.7509766 0.5023576
0 0.8506508 -0.5257311 0 0.8506508 -0.5257311 0.7523576 0.5009766
-0.5257311 0 -0.8506508 -0.5257311 0 -0.8506508 0.9990234 0.5009766
-0.8506508 0.5257311 0 -0.8506508 0.5257311 0 0.9990234 0.7476424
0 -0.8506508 0.5257311 0 -0.8506508 0.5257311 0.2476424 0.4990234
0.8506508 -0.5257311 0 0.8506508 -0.5257311 0 0.0009765625 0.4990234
0.5257311 0 0.8506508 0.5257311 0 0.8506508 0.0009765625 0.2523576
0 -0.8506508 0.5257311 0 -0.8506508 0.5257311 0.002357631 0.2509766
-0.5257311 0 0.8506508 -0.5257311 0 0.8506508 0.2490234 0.2509766
-0.8506508 -0.5257311 0 -0.8506508 -0.5257311 0 0.2490234 0.4976424
0 -0.8506508 -0.5257311 0 -0.8506508 -0.5257311 0.4976424 0.4990234
0.5257311 0 -0.8506508 0.5257311 0 -0.8506508 0.2509766 0.4990234
0.8506508 -0.5257311 0 0.8506508 -0.5257311 0 0.2509766 0.2523576
0 -0.8506508 -0.5257311 0 -0.8506508 -0.5257311 0.2523576 0.2509766
-0.8506508 -0.5257311 0 -0.8506508 -0.5257311 0 0.4990234 0.2509766
-0.5257311 0 -0.8506508 -0.5257311 0 -0.8506508 0.4990234 0.4976424
3 1 0 4 
3 12 13 6 
3 2 3 5 
3 14 15 7 
3 16 17 10 
3 18 19 8 
3 20 21 9 
3 22 23 11 
3 24 25 26 
3 27 28 29 
3 30 31 32 
3 33 34 35 
3 36 37 38 
3 39 40 41 
3 42 43 44 
3 45 46 47 
3 48 49 50 
3 51 52 53 
3 54 55 56 
3 57 58 59 
